P2
14 7
255
0 0 0 0 0 0 0 0 0 0 0 0 240 0 0 70 0 0 0 70 0 0 90 90 90 0 0 0 0 70 70 0 0 70 0 90 0 0 0 0 240 0 0 70 0 70 0 70 0 0 90 90 0 0 240 0 0 70 0 0 70 70 0 0 0 0 90 0 240 0 0 70 0 0 0 70 0 90 90 90 0 0 240 0 0 0 0 0 0 0 0 0 0 0 0 0 0 0 