P2
14 7
255
255 255 255 255 255 255 255 255 255 255 255 255 100 255 255 200 255 255 255 200 255 255 150 150 150 255 255 255 255 200 200 255 255 200 255 150 255 255 255 255 100 255 255 200 255 200 255 200 255 255 150 150 255 255 100 255 255 200 255 255 200 200 255 255 255 255 150 255 100 255 255 200 255 255 255 200 255 150 150 150 255 255 100 255 255 255 255 255 255 255 255 255 255 255 255 255 255 255 