P2
128 96
255
64 85 72 105 80 56 80 68 97 85 97 76 97 80 125 113 85 133 125 129 141 129 101 80 93 85 93 80 80 76 56 101 60 89 101 121 56 89 101 85 117 89 141 129 109 165 182 242 226 48 109 72 206 246 238 165 165 178 186 101 113 137 121 157 129 165 137 194 133 109 153 137 117 153 129 85 202 170 210 157 101 93 165 238 121 117 72 149 186 230 226 226 226 226 226 226 226 226 226 226 226 226 226 226 226 226 226 226 226 226 226 226 226 226 226 226 226 226 226 226 226 226 226 226 226 226 226 226 97 56 60 60 32 72 85 109 85 85 105 89 85 125 85 105 121 101 117 133 125 64 80 93 60 89 105 109 105 97 113 64 85 72 72 149 85 76 89 113 68 89 56 105 153 125 113 218 198 234 85 68 93 97 246 234 101 178 198 80 137 97 60 113 186 242 218 80 125 125 174 85 80 153 141 133 149 109 113 153 161 214 153 210 153 125 80 234 230 226 226 230 230 230 226 226 226 226 226 226 226 226 226 226 226 226 226 226 226 226 226 226 226 226 226 226 226 226 226 226 226 226 226 226 226 226 226 226 80 52 85 56 72 76 85 97 93 97 109 121 113 85 80 85 8 145 190 105 125 117 85 80 52 117 101 113 68 72 105 105 149 137 76 60 121 109 76 93 76 109 190 64 137 72 97 149 202 206 165 153 129 101 194 182 165 48 101 202 121 182 129 129 117 145 125 242 85 80 186 141 97 105 129 101 145 125 206 165 125 117 105 121 117 117 157 234 230 230 226 230 202 214 230 226 226 226 226 226 226 226 226 226 226 226 226 226 226 226 226 226 226 226 226 226 226 226 226 226 226 226 226 226 226 226 226 226 56 72 56 85 93 64 89 105 52 93 105 89 76 80 105 64 97 137 125 76 80 113 80 105 76 44 72 133 109 101 64 80 80 109 64 89 85 89 85 76 80 85 64 80 97 85 97 133 157 129 101 117 121 170 174 222 89 133 226 186 109 194 174 85 105 80 101 117 105 125 121 105 218 161 198 105 117 174 125 129 97 101 93 113 68 64 125 190 226 214 170 109 170 214 230 226 226 226 226 226 226 226 226 226 226 226 226 226 226 226 226 226 226 226 226 226 226 226 226 226 226 226 226 226 226 226 226 226 56 72 44 48 85 76 68 97 109 93 105 76 141 101 80 105 93 121 153 56 60 125 133 64 101 85 80 109 93 101 56 117 89 76 105 72 85 68 129 56 85 125 101 48 125 145 101 113 97 121 101 93 133 170 210 72 89 186 105 145 210 170 117 129 105 93 117 93 76 93 113 109 133 141 141 76 101 153 133 125 85 48 186 165 117 93 101 109 121 198 149 206 234 226 230 230 230 230 230 230 230 230 226 226 226 226 226 226 226 226 226 226 226 226 226 226 226 226 226 226 226 226 226 226 226 226 226 226 52 60 97 76 60 56 117 93 117 125 105 109 93 105 76 121 153 121 125 109 109 161 214 161 76 121 76 64 101 89 121 93 149 89 52 117 97 125 93 72 80 121 109 52 68 105 117 182 125 137 97 129 117 60 97 121 174 117 113 117 174 113 141 137 190 117 105 101 105 121 76 89 105 137 125 101 125 129 113 93 97 109 157 194 133 170 36 165 222 238 234 226 234 226 230 226 226 230 230 230 230 226 226 226 226 226 226 226 226 226 226 226 226 226 226 226 226 226 226 226 226 226 226 226 226 226 226 226 68 56 48 56 72 93 97 72 93 113 93 97 85 85 89 97 85 109 129 105 121 153 165 190 56 141 60 109 76 105 141 113 56 80 68 80 56 149 101 68 68 105 214 113 72 85 64 157 113 113 165 48 80 32 72 165 129 113 64 137 68 141 206 198 161 170 202 117 141 64 101 89 113 113 121 125 89 121 117 117 109 190 113 64 230 170 129 226 226 234 226 230 230 230 226 230 226 226 226 226 226 226 226 226 226 226 226 226 226 226 226 226 230 230 230 230 230 226 226 226 226 226 226 226 226 226 226 230 68 56 89 56 56 85 137 165 153 129 89 170 182 76 52 60 141 97 56 72 80 76 109 80 137 153 80 109 68 129 101 72 117 113 101 93 89 125 149 48 121 109 48 210 165 56 76 76 129 89 64 157 149 105 101 133 109 113 145 157 125 56 64 149 218 182 52 93 121 85 97 105 210 97 105 109 76 80 117 117 133 133 85 85 129 52 137 194 234 226 230 230 226 230 226 226 226 226 226 230 226 226 226 226 226 226 226 226 226 226 226 226 230 230 230 230 230 230 230 230 230 230 230 230 230 230 230 230 76 44 48 56 52 72 60 121 141 137 117 109 113 113 76 101 80 105 133 76 113 80 80 72 121 113 68 72 85 89 72 105 97 85 129 105 64 105 137 105 149 149 165 145 72 60 105 60 76 105 72 80 93 72 64 68 64 218 101 113 109 137 52 93 85 52 85 97 117 105 76 89 137 113 121 89 105 64 105 133 141 129 80 89 89 44 206 242 230 226 226 230 230 230 230 230 230 230 230 230 230 230 230 230 230 230 230 230 230 230 230 230 230 230 230 230 230 230 230 230 230 230 230 230 230 230 230 230 80 137 165 48 60 174 145 117 93 121 113 121 101 121 117 121 40 157 117 202 186 149 80 89 113 137 165 121 76 121 105 109 76 89 125 60 105 40 149 210 129 113 242 246 153 174 125 202 60 76 80 121 137 68 101 68 129 101 64 105 89 48 64 97 89 80 125 85 89 133 141 125 97 101 161 194 105 129 121 109 72 44 93 68 133 214 246 242 238 230 230 230 234 230 230 230 230 230 230 230 230 230 230 230 230 230 230 230 230 230 230 230 230 230 230 230 230 230 230 230 230 230 230 230 230 230 230 230 72 89 125 48 72 186 133 165 137 76 149 186 153 97 121 101 48 109 76 125 97 145 125 76 36 60 117 153 97 141 125 85 93 97 76 137 157 72 52 80 85 121 182 202 137 218 101 157 218 56 97 109 105 72 48 109 93 109 109 133 165 165 80 133 117 56 113 80 141 117 125 141 109 113 113 113 133 141 113 101 64 64 60 97 190 246 250 238 238 234 230 238 218 226 230 230 230 230 230 230 230 230 230 230 230 230 230 230 230 230 230 230 230 230 230 230 230 230 230 230 230 230 230 230 230 230 230 230 48 80 72 105 97 105 121 105 133 101 101 117 89 76 93 68 64 76 109 109 157 80 161 44 56 133 153 97 52 80 93 89 85 125 93 68 93 93 129 129 141 141 85 129 133 238 210 153 238 117 76 125 113 76 72 80 80 109 89 121 117 153 222 198 141 222 157 109 133 186 125 85 76 129 153 129 68 125 89 80 101 89 157 109 93 109 178 85 250 238 214 137 194 234 230 226 230 230 230 230 230 230 230 230 230 230 230 230 230 230 230 230 230 230 230 230 230 230 230 230 230 230 230 230 230 230 230 230 72 89 76 52 64 80 101 80 145 109 105 85 105 101 121 89 60 89 121 117 113 105 109 16 68 89 125 113 76 109 56 85 85 105 80 133 72 85 80 97 97 93 60 109 174 137 149 125 141 137 76 101 68 72 60 52 153 64 109 178 97 93 101 129 109 97 133 113 72 153 133 141 153 68 80 125 121 64 72 76 64 44 149 149 101 218 125 214 202 89 93 161 234 234 226 230 230 230 230 230 230 230 230 230 230 230 230 230 230 230 230 230 230 230 230 230 230 230 230 230 230 230 230 230 230 230 230 230 68 85 72 80 68 52 80 129 117 105 109 85 72 80 72 56 89 93 85 80 109 105 105 28 93 64 52 170 125 101 113 85 89 121 121 85 101 80 93 93 113 101 109 105 133 105 157 121 109 93 149 125 125 125 109 76 157 109 76 113 145 121 117 109 125 85 97 89 165 121 117 113 109 133 93 113 133 113 113 72 60 80 85 97 121 238 226 214 230 214 222 250 230 230 230 230 230 230 230 230 230 230 230 230 230 230 230 230 230 230 230 230 230 230 230 230 230 230 230 230 230 230 230 230 230 230 230 230 72 68 52 76 64 93 105 101 93 117 145 64 85 89 72 97 72 101 85 101 97 72 12 44 97 97 105 89 105 93 72 93 93 121 101 101 113 105 80 93 89 149 117 93 105 121 129 157 93 85 117 121 113 64 52 56 153 129 113 161 121 76 52 117 93 93 153 153 121 129 137 113 105 97 178 133 68 72 109 157 133 194 109 36 80 109 246 250 170 137 182 214 242 230 230 230 230 230 230 230 230 230 230 230 230 230 230 230 230 230 230 230 230 230 230 230 230 230 230 230 230 230 230 230 230 230 230 230 72 68 64 72 80 68 101 105 117 85 113 60 85 64 93 76 89 76 105 80 80 93 64 48 133 76 121 145 101 125 72 101 93 60 85 101 80 101 105 109 105 161 182 198 117 174 121 141 149 109 125 101 44 93 52 72 85 117 93 133 101 89 178 117 101 109 113 109 113 117 234 113 101 133 109 105 60 89 149 109 129 206 178 101 85 97 153 218 214 250 190 198 234 234 230 230 230 230 230 230 230 230 230 230 230 230 230 230 230 230 230 230 230 230 230 230 230 230 230 230 230 230 230 230 230 230 230 230 89 60 68 68 44 56 89 56 149 117 85 12 105 85 76 44 93 85 101 101 109 56 16 68 97 80 80 80 93 161 117 105 121 64 40 76 109 89 64 101 157 153 93 137 165 190 125 161 97 133 117 36 72 76 85 52 97 80 97 105 101 133 230 68 125 121 161 48 113 89 105 133 113 85 89 165 101 56 72 72 109 105 161 198 113 80 157 190 93 121 210 246 230 234 230 230 230 230 230 230 230 230 230 230 230 230 230 230 230 230 230 230 230 230 230 230 230 230 230 230 230 230 230 230 230 230 230 230 76 64 68 85 85 80 113 101 89 93 72 93 44 93 85 64 93 64 93 89 93 24 32 113 101 117 72 89 68 101 121 85 101 76 52 72 117 222 129 145 178 186 101 121 182 149 174 105 129 52 85 141 105 121 153 157 72 133 105 141 85 85 68 76 109 214 101 93 109 85 117 161 117 72 85 190 214 76 113 117 141 101 137 210 153 157 149 161 157 64 72 170 230 234 234 226 230 230 230 230 230 230 230 230 230 230 230 230 230 230 230 230 230 230 230 230 230 230 230 230 230 230 230 230 230 230 230 230 93 56 40 105 97 105 101 101 113 133 28 93 89 85 93 93 80 109 60 85 93 40 64 80 97 109 101 105 93 101 113 89 85 117 32 125 117 133 165 170 165 117 141 72 109 125 101 129 101 109 149 157 186 93 218 194 129 129 52 165 105 85 105 129 194 174 149 64 89 153 97 113 93 93 93 97 109 80 97 105 133 64 72 161 178 214 206 137 145 246 238 238 234 226 230 234 230 230 230 230 230 230 230 230 230 230 230 230 230 230 230 230 230 230 230 230 230 230 230 230 230 230 230 230 230 230 230 230 76 60 93 125 80 121 133 105 109 85 28 72 109 56 97 76 85 97 56 93 56 20 85 113 80 68 97 64 68 101 117 113 109 64 105 121 214 186 93 174 117 93 190 170 93 93 101 121 93 93 97 80 145 145 72 129 89 89 145 72 129 137 117 113 117 76 85 52 149 117 101 85 85 125 186 113 101 109 80 89 125 133 121 170 97 145 161 246 161 238 238 230 230 234 234 234 230 230 230 230 230 230 230 230 230 230 230 230 230 230 230 230 230 230 230 230 230 230 234 234 230 230 234 234 230 230 230 234 109 68 101 125 125 97 101 141 129 76 40 60 60 89 85 109 76 121 97 80 40 20 64 117 105 93 85 80 72 89 109 85 93 97 170 85 214 190 64 64 48 137 64 68 56 68 141 64 97 80 85 117 60 145 101 101 117 93 113 125 105 97 133 97 105 89 113 145 68 141 145 97 89 129 137 89 105 113 113 80 97 165 238 202 198 182 165 194 210 242 202 226 234 234 226 230 234 234 230 230 230 230 230 230 230 230 230 230 230 230 230 230 230 230 234 234 230 230 230 230 230 234 234 234 234 234 234 234 105 68 68 93 109 101 60 113 157 64 40 105 44 80 105 105 105 89 109 113 101 20 117 101 89 72 89 80 97 93 85 89 101 80 105 93 137 129 60 28 40 52 85 93 101 161 149 178 141 141 89 32 85 129 93 64 93 105 101 121 56 121 113 105 121 141 141 129 161 109 109 145 157 105 105 68 72 125 113 105 149 80 149 226 242 238 170 242 234 230 149 226 230 230 234 234 234 234 234 230 230 230 230 230 230 234 230 230 230 230 230 230 234 234 234 234 230 230 230 230 234 234 234 234 234 230 234 234 117 121 105 56 97 125 101 101 113 24 52 85 105 76 145 121 113 93 105 93 105 85 149 117 76 80 85 93 93 97 76 101 72 48 68 76 44 109 145 133 121 121 129 56 97 113 157 141 89 129 80 60 85 113 113 105 101 89 64 80 145 121 137 149 113 125 153 125 93 89 113 133 105 125 125 137 161 56 101 117 125 125 109 170 182 214 186 190 182 198 210 238 230 230 234 234 234 234 234 234 234 234 230 230 230 230 230 230 234 234 234 234 234 234 230 230 234 234 234 234 234 234 234 230 234 234 234 234 93 125 101 101 72 109 76 117 48 12 121 64 97 97 97 80 80 93 133 89 68 109 121 125 133 76 93 85 72 48 32 36 60 76 97 85 105 93 109 141 109 89 56 105 121 80 93 105 170 149 121 113 93 85 85 109 72 72 105 113 101 117 109 109 93 105 113 89 109 93 80 89 76 85 129 56 121 129 121 113 113 93 129 101 170 198 170 186 178 161 218 234 230 234 234 234 234 234 234 234 234 234 234 234 234 234 234 234 234 234 234 230 230 230 230 230 234 234 238 238 242 238 238 234 238 238 238 234 97 113 113 76 109 89 97 85 97 137 32 117 117 101 117 68 72 68 105 113 85 97 89 89 76 36 40 72 24 85 85 101 121 109 101 80 85 64 64 165 32 101 129 113 109 170 117 125 141 125 121 101 89 133 121 68 89 68 93 133 121 89 133 165 101 178 80 145 170 121 121 113 121 133 113 109 80 97 80 133 80 101 109 85 125 129 165 121 157 226 234 234 234 230 234 234 234 234 234 230 230 230 230 234 234 234 230 230 238 230 230 234 230 234 234 234 234 238 238 242 238 238 238 242 242 238 238 238 101 121 85 68 80 121 97 68 93 113 85 113 89 129 105 97 105 97 93 89 52 113 125 121 60 97 93 113 97 68 68 80 72 89 97 105 60 72 64 32 149 68 44 121 60 141 161 133 178 121 153 161 121 85 85 80 80 89 85 85 93 109 97 141 64 109 93 93 113 121 133 153 121 101 113 125 141 125 125 141 101 129 161 133 222 214 210 105 149 198 238 230 234 238 230 234 234 226 230 234 238 234 234 234 234 230 238 234 226 238 234 234 234 234 234 234 234 238 238 242 238 238 242 242 242 242 242 242 56 64 56 80 89 129 129 80 121 93 133 141 89 56 89 105 80 97 113 89 28 76 85 113 137 80 72 60 72 113 85 105 121 105 101 72 68 56 48 113 125 105 89 109 85 76 182 153 121 89 117 206 202 105 141 89 76 101 109 76 101 113 105 113 157 157 129 105 178 129 129 93 121 137 125 121 64 109 97 117 121 145 109 182 101 80 161 117 194 246 234 234 234 230 234 234 234 238 230 234 230 234 230 234 230 234 230 238 234 238 234 234 234 234 234 234 234 238 238 238 238 238 238 242 242 242 242 242 80 64 89 117 129 125 117 76 32 97 105 105 76 89 97 60 76 60 48 16 52 125 97 105 105 109 80 72 76 105 93 101 121 125 72 117 80 36 85 145 56 141 105 125 117 141 165 226 117 121 76 125 113 137 129 109 72 89 89 109 101 153 93 113 238 145 182 145 170 165 121 133 85 93 97 109 101 137 129 113 141 117 117 93 202 137 93 174 198 165 234 234 238 238 234 242 238 238 242 230 234 246 238 234 234 234 234 230 238 234 234 234 234 234 234 234 234 234 238 238 234 234 238 238 238 238 242 242 52 121 117 105 101 141 76 68 97 101 89 85 56 85 64 44 68 80 125 40 105 80 105 109 109 109 97 56 64 89 101 101 97 89 76 113 44 32 76 76 80 60 80 64 101 109 157 109 117 133 89 80 137 133 85 68 101 89 72 97 97 89 109 89 165 125 89 97 234 145 109 105 141 117 125 113 113 133 133 129 125 129 145 121 202 109 76 234 198 226 226 234 238 242 226 174 194 218 170 165 121 113 198 246 234 234 234 234 234 234 230 234 234 234 234 234 234 234 234 234 234 234 234 234 234 234 238 238 72 109 93 97 121 85 64 44 24 28 32 32 97 113 89 105 85 76 101 85 101 85 80 80 121 113 101 60 105 80 68 97 101 93 125 40 52 64 129 182 101 125 117 157 68 117 157 174 117 210 202 157 113 125 129 161 125 109 105 85 105 117 89 121 113 145 133 133 145 80 97 72 113 93 101 117 101 121 113 93 85 101 113 170 101 80 133 113 178 174 230 242 202 68 40 36 85 145 182 161 129 206 68 101 242 242 230 234 234 230 238 238 234 234 234 234 234 234 234 234 234 234 234 234 234 234 234 234 101 153 72 93 101 56 20 89 48 97 105 113 97 97 105 101 68 80 64 48 117 101 97 113 85 89 133 105 76 113 80 72 109 113 44 56 113 117 76 161 93 145 113 174 109 72 85 93 89 121 109 121 174 85 101 129 133 133 80 72 105 101 121 117 117 125 97 85 145 97 93 97 36 101 89 40 125 105 133 125 117 80 105 113 105 105 206 174 246 242 238 234 230 133 190 178 161 186 97 145 202 242 246 117 109 246 238 242 234 234 238 230 234 234 234 234 234 234 234 234 234 234 234 234 234 234 234 234 64 117 80 89 56 24 93 36 80 97 52 76 80 105 93 60 89 105 52 64 113 113 121 101 125 105 89 133 72 121 109 105 76 56 36 101 68 48 80 93 85 117 137 97 153 121 178 149 113 137 68 97 101 56 85 101 93 105 60 68 80 117 109 113 80 56 109 121 97 101 89 80 12 40 36 4 129 117 105 117 129 133 117 105 109 137 145 161 246 238 234 242 238 202 157 194 141 165 149 190 161 210 242 246 44 76 210 218 242 246 234 234 234 234 234 234 234 234 234 234 234 234 234 234 234 234 234 234 93 113 80 105 101 44 129 101 64 72 64 109 97 125 101 113 76 105 109 93 117 101 85 109 105 109 113 109 109 97 113 93 85 24 85 109 121 101 93 52 93 89 129 174 153 178 141 145 85 93 101 141 76 125 93 93 89 109 60 64 85 80 117 105 137 101 76 93 105 85 109 121 97 89 121 97 109 133 141 85 125 157 121 133 97 121 121 182 182 242 242 242 238 198 218 178 178 178 174 101 178 129 190 165 36 28 117 174 190 141 246 234 238 238 234 234 238 238 238 242 242 242 246 242 246 246 242 246 93 80 68 89 117 109 60 56 117 68 97 170 121 101 105 101 85 105 93 93 121 105 93 93 121 113 141 93 109 105 85 72 24 85 80 109 113 76 85 89 137 202 190 202 234 202 198 101 97 97 117 105 64 117 105 85 97 93 48 72 52 133 141 121 129 153 101 68 80 117 105 52 24 0 0 68 36 56 85 125 137 121 133 153 105 153 141 242 242 234 218 246 226 129 234 226 141 129 72 137 157 182 186 226 64 20 72 246 178 52 153 246 242 242 246 234 222 202 190 178 170 153 149 133 113 113 105 85 105 72 125 80 113 52 28 125 105 113 85 80 129 105 121 133 76 72 44 85 109 85 89 52 105 105 133 60 121 101 72 76 64 97 101 121 113 72 85 105 89 234 242 186 198 202 109 89 157 101 89 56 76 85 80 89 93 101 56 56 105 64 125 101 133 85 109 149 64 36 48 113 105 72 85 109 72 20 4 117 129 141 133 121 121 117 129 198 121 141 76 170 141 93 218 170 101 157 113 230 44 36 56 109 56 121 64 141 145 93 85 125 113 93 72 72 68 80 76 64 76 52 52 52 36 28 28 24 133 121 133 68 93 72 48 60 72 117 93 76 89 117 93 97 76 56 64 80 121 113 121 101 113 105 121 16 56 24 16 121 109 105 101 93 97 80 89 105 93 129 246 234 238 226 153 93 105 234 85 60 133 80 109 85 97 97 89 85 129 68 76 153 80 101 121 113 89 93 145 161 113 85 48 48 89 52 129 109 133 133 157 117 137 141 125 85 109 133 141 174 153 141 153 113 101 93 89 76 48 44 72 89 89 85 80 60 52 48 40 32 20 16 16 8 8 12 8 8 12 16 32 56 76 93 113 129 60 80 72 44 93 125 68 93 85 76 93 93 101 109 80 161 165 52 52 97 121 129 121 101 105 117 117 4 12 24 0 174 170 129 149 109 121 89 64 97 129 117 121 117 170 190 121 165 137 161 56 101 89 64 80 97 64 101 101 113 89 113 85 129 129 137 121 105 113 97 97 44 24 28 44 48 16 48 89 149 137 129 125 113 121 117 121 117 117 93 89 85 72 72 68 60 60 52 44 24 48 40 24 16 8 4 8 4 8 28 24 40 93 121 141 174 198 206 234 246 250 250 250 246 250 250 246 250 64 64 20 76 85 93 80 80 85 121 101 97 72 101 101 93 129 48 85 153 137 113 105 109 105 113 85 60 48 36 44 113 105 48 56 121 109 141 64 72 48 52 40 109 149 117 246 210 153 85 68 109 68 109 101 93 85 85 76 89 89 97 93 72 105 145 129 121 117 113 97 48 40 64 44 48 93 80 93 85 80 80 68 60 44 48 32 20 16 12 4 8 8 4 0 8 12 40 32 85 48 44 4 36 133 149 105 246 250 210 85 170 202 250 246 250 250 246 246 242 246 242 246 246 246 246 242 246 52 113 93 97 101 68 52 44 68 109 101 89 76 89 76 76 89 52 133 145 113 125 113 85 117 113 93 64 72 52 52 48 68 121 64 56 60 80 36 52 56 60 129 32 56 89 80 141 76 52 52 64 72 97 105 121 109 109 113 109 117 109 105 93 89 72 76 60 52 52 40 52 48 56 56 52 16 20 12 4 4 0 0 8 24 36 36 28 8 129 157 161 141 129 246 206 149 186 125 170 56 40 16 4 182 214 157 170 242 246 32 141 141 250 149 218 246 246 246 242 242 238 242 242 242 242 242 242 40 48 60 109 80 117 52 44 64 72 117 89 76 76 101 80 56 44 85 109 72 113 101 105 89 44 48 40 89 56 44 113 125 133 141 44 93 117 36 44 64 68 44 56 56 89 80 117 93 93 105 101 97 85 80 64 56 56 40 40 24 20 20 12 4 4 4 4 0 4 16 36 56 48 52 56 24 24 8 72 125 125 141 145 149 89 44 20 68 238 238 246 165 117 186 250 157 133 178 149 68 20 194 20 64 218 194 85 246 250 105 97 113 250 178 145 246 246 242 242 242 242 242 242 242 242 238 242 32 52 109 89 60 93 52 56 89 89 72 121 121 89 85 97 44 48 76 44 85 85 109 36 12 8 52 36 32 40 48 72 137 117 105 141 109 76 93 97 89 85 89 76 76 60 52 44 32 32 16 12 16 4 8 0 4 0 16 20 32 40 44 56 80 101 68 80 129 141 129 85 8 20 24 0 52 44 0 40 121 137 117 105 72 36 36 8 117 226 234 202 222 214 101 174 133 137 165 125 60 28 85 80 0 178 182 109 178 182 113 242 40 222 133 145 234 214 230 246 242 242 238 242 242 242 238 242 28 64 101 125 121 129 40 56 89 137 105 89 89 101 97 68 48 72 89 105 109 105 85 60 72 101 44 52 56 40 64 72 60 64 52 52 36 36 24 16 12 12 12 8 4 4 4 16 16 16 32 20 28 85 52 93 93 105 105 105 105 101 85 125 109 113 113 85 89 129 80 109 16 20 24 32 97 48 80 44 137 117 117 129 113 52 8 64 226 218 222 141 234 222 125 210 165 238 222 161 125 28 89 234 44 40 198 182 68 113 182 206 129 153 85 149 194 214 242 238 238 242 242 238 242 238 238 242 40 93 121 117 113 93 40 93 105 101 109 101 97 93 105 97 97 89 85 68 64 52 48 52 32 20 52 44 48 48 36 4 8 0 4 8 12 40 28 24 36 16 8 44 60 52 36 60 113 64 68 64 40 85 76 105 101 85 109 109 113 109 117 109 105 80 101 117 109 105 89 85 68 89 89 48 60 113 133 24 44 76 97 93 64 64 24 109 202 218 125 125 129 121 141 222 141 141 129 170 149 28 76 202 80 24 113 194 24 85 113 149 186 113 170 210 222 242 234 238 234 238 238 238 234 238 242 234 105 117 101 109 89 89 85 76 72 60 52 48 48 28 24 16 12 8 12 4 8 4 8 8 20 28 44 48 44 36 56 72 101 101 137 109 157 125 137 32 44 24 24 32 72 56 40 52 80 52 56 40 40 89 101 85 76 101 105 101 113 93 113 76 109 85 89 105 89 129 109 121 48 113 105 56 145 105 85 80 105 117 129 56 56 32 85 206 149 129 133 101 161 125 165 153 125 129 161 141 141 40 36 206 202 44 40 80 8 52 153 32 93 64 153 153 246 242 238 238 238 238 234 238 238 238 234 238 40 28 20 20 12 4 4 0 4 0 8 4 12 16 20 24 52 56 28 60 60 105 105 125 80 133 56 8 24 12 4 80 145 121 125 121 93 89 165 16 32 20 28 32 60 72 60 85 48 48 48 52 48 101 101 80 101 60 68 125 85 85 93 80 85 113 101 117 89 89 109 101 16 80 56 16 101 117 85 117 48 101 80 20 64 109 178 133 109 109 76 117 121 121 129 137 133 141 125 145 101 36 24 28 0 40 4 0 165 36 80 60 56 80 178 194 157 153 234 238 238 238 246 242 242 218 226 242 20 36 40 48 52 89 101 121 64 141 153 105 89 85 32 76 89 40 16 80 89 105 101 109 117 125 157 40 28 12 68 101 129 133 137 125 125 101 48 20 20 32 20 32 56 76 72 64 68 40 44 44 56 97 89 89 117 89 105 89 109 105 113 117 109 89 113 121 101 105 80 85 16 64 40 24 105 101 125 97 93 89 157 121 105 198 97 137 133 137 117 129 137 149 113 93 80 44 12 4 28 28 28 48 170 170 52 0 165 85 101 85 113 40 226 214 178 186 238 246 218 178 133 80 97 121 85 145 68 125 117 117 105 68 64 97 89 101 85 113 85 56 40 44 20 32 109 145 89 68 105 133 113 101 105 72 101 56 117 109 60 121 125 113 125 109 48 36 36 40 32 44 76 52 76 60 60 56 52 44 64 141 97 113 105 76 44 40 68 80 113 129 109 76 93 101 113 105 129 76 20 48 32 16 145 105 133 76 72 80 85 125 137 182 153 153 145 97 93 68 40 4 4 36 60 72 109 153 194 133 8 68 129 157 72 12 157 109 80 80 113 76 121 186 97 93 93 101 137 101 76 246 246 246 246 97 68 117 109 109 93 133 93 121 105 113 80 72 105 44 56 20 85 72 117 174 85 85 93 145 145 117 97 36 145 60 60 105 109 113 89 105 105 117 93 20 44 48 48 52 60 52 64 56 52 40 36 36 56 76 85 64 32 32 32 16 0 64 113 105 101 109 101 64 85 105 121 129 16 36 28 28 125 125 109 60 72 68 32 48 80 137 52 24 0 12 44 52 68 121 129 137 129 113 101 113 113 145 32 12 93 117 28 52 190 149 44 89 113 76 64 72 93 32 174 182 246 202 28 153 246 246 246 226 85 97 68 64 93 105 89 93 97 113 121 109 48 52 32 93 89 80 89 129 72 80 125 141 145 113 76 16 105 28 44 117 109 101 97 109 89 89 72 24 44 36 44 48 68 60 52 60 44 40 48 28 60 149 153 89 32 20 0 0 56 93 93 101 97 109 76 105 85 97 117 97 40 36 28 32 121 105 64 52 44 101 109 36 36 36 40 85 133 165 137 117 117 141 121 129 101 105 137 117 133 141 80 0 4 48 36 101 137 133 105 44 16 125 60 137 157 190 44 250 250 234 105 89 153 113 80 93 48 97 105 113 97 93 101 97 101 129 85 64 44 52 109 97 97 97 105 161 76 89 109 117 137 105 89 16 80 24 36 121 125 121 101 117 101 93 80 16 24 36 32 28 36 28 24 28 20 20 40 24 32 60 56 56 16 20 8 76 121 101 93 105 113 101 89 97 113 105 121 97 44 28 32 44 12 24 48 80 72 101 97 105 60 60 60 121 170 133 121 157 137 101 121 129 117 137 101 129 125 117 161 44 4 32 20 97 56 32 0 32 80 56 72 161 170 182 117 85 121 89 44 101 68 246 246 246 72 64 80 93 85 72 85 76 93 109 72 60 60 32 64 72 36 12 24 28 105 68 105 129 101 109 105 20 48 20 48 76 72 101 109 121 113 109 28 8 85 80 56 72 101 97 60 56 85 133 97 64 60 36 85 72 40 56 157 68 85 117 117 121 97 117 68 64 89 28 20 24 56 64 52 64 121 129 137 117 129 60 170 109 68 60 85 80 145 117 125 85 101 117 101 117 141 109 125 157 137 113 89 56 4 4 12 24 76 72 101 12 32 97 52 89 68 48 40 28 28 8 24 210 64 226 198 186 89 105 113 52 85 93 109 105 85 85 101 40 40 20 4 0 52 28 16 20 56 97 105 101 113 121 113 8 48 16 60 117 129 121 125 125 109 97 4 85 36 56 109 129 137 101 105 97 76 80 109 85 105 68 145 85 28 80 129 72 64 52 32 24 20 12 36 72 80 105 109 80 40 52 64 56 64 105 105 105 125 89 129 93 117 76 121 52 109 129 121 109 125 149 109 109 93 68 36 12 4 24 44 93 117 137 141 137 157 129 85 36 80 68 68 109 121 85 80 97 97 105 89 80 76 68 64 60 97 93 101 68 105 85 97 101 64 24 76 113 93 56 36 36 101 76 52 89 97 76 117 129 105 105 153 20 44 12 89 157 60 101 157 133 125 40 20 89 32 28 68 129 97 72 101 76 85 113 113 105 80 80 109 48 64 93 32 36 28 64 85 113 121 89 93 44 56 101 80 20 8 40 20 28 40 40 80 145 109 113 52 80 97 76 76 68 4 85 137 89 60 32 16 16 28 48 72 105 121 137 121 113 109 97 109 97 97 89 97 97 85 85 76 60 48 40 28 28 16 8 20 12 20 8 8 12 101 80 101 93 101 85 85 109 52 76 64 72 89 72 93 76 76 149 153 109 121 117 105 117 85 89 109 40 36 12 113 85 113 93 121 117 105 8 68 80 12 40 68 85 80 93 80 76 56 125 72 105 97 137 125 121 68 48 24 85 72 105 105 105 117 113 125 93 85 64 89 72 60 64 52 76 60 32 4 12 52 89 60 101 85 76 125 141 97 85 93 105 109 117 117 113 105 93 85 93 68 52 48 36 24 24 20 8 16 24 4 8 12 16 24 12 16 32 64 28 80 178 48 105 56 238 238 210 101 89 85 76 89 97 60 64 44 76 85 93 68 85 80 109 109 44 97 105 117 113 101 80 113 80 97 40 85 16 113 93 105 85 182 133 76 24 101 16 52 28 32 105 80 72 97 93 93 109 137 93 105 137 129 149 105 85 64 76 93 60 85 97 60 72 113 125 121 97 113 68 48 48 48 52 72 105 85 97 105 97 97 80 76 72 68 48 56 40 36 24 16 16 12 8 8 8 8 12 12 24 40 44 60 56 76 97 76 0 113 80 36 28 133 56 109 101 121 202 182 242 64 214 93 242 246 238 101 97 89 97 68 72 85 105 60 101 40 60 44 64 60 109 80 60 121 64 40 56 60 80 89 85 109 72 121 52 129 109 97 85 153 113 32 56 72 20 64 36 68 72 52 85 137 97 121 109 129 97 105 137 129 133 76 129 80 97 105 93 109 121 105 105 93 97 117 80 72 56 48 48 40 44 36 36 24 20 16 16 20 12 12 12 8 20 32 24 76 93 48 48 80 68 68 76 113 105 97 89 72 97 97 113 113 129 24 52 72 4 24 28 52 109 133 153 186 182 165 157 97 218 101 246 242 202 133 105 113 85 76 93 117 113 52 20 36 76 97 97 101 85 113 44 80 113 64 64 97 85 80 68 64 52 89 44 105 105 93 121 113 68 20 68 16 44 101 8 80 60 28 89 109 85 101 101 97 101 101 85 85 85 76 76 68 60 52 52 36 20 16 16 8 64 93 28 0 44 48 48 48 48 12 12 8 16 28 36 20 8 4 20 36 56 105 97 85 56 89 145 133 129 141 89 121 89 105 93 89 85 64 72 137 85 0 89 12 44 52 101 36 64 137 165 141 153 137 141 129 133 76 234 210 222 109 85 89 97 101 72 48 97 20 40 85 68 85 109 76 80 68 24 52 89 76 133 68 60 93 93 40 40 40 36 85 121 85 113 93 68 85 85 105 97 93 93 85 80 80 68 64 60 48 52 32 16 24 12 8 4 4 8 16 16 20 24 32 36 44 64 60 64 105 121 125 68 36 32 32 32 16 52 16 12 28 12 44 28 4 8 12 24 16 56 80 113 101 109 93 125 105 101 141 129 121 121 121 89 93 52 80 16 36 28 56 56 97 101 137 32 89 121 68 101 145 174 89 174 76 133 161 238 93 101 72 72 60 117 109 64 44 44 141 85 68 72 28 72 85 85 101 89 101 85 89 85 89 80 44 44 40 44 60 72 48 40 68 52 48 40 24 24 12 4 4 12 12 12 16 4 4 16 16 16 40 40 72 60 80 36 60 72 85 76 60 68 93 133 105 76 89 121 121 80 48 56 56 20 24 32 28 44 20 8 16 48 12 48 20 8 12 97 52 80 89 125 117 117 105 97 80 121 133 125 133 117 85 85 40 52 32 40 68 89 101 133 145 48 68 60 137 129 125 141 145 153 97 186 222 202 93 40 72 60 93 141 121 133 129 117 125 97 93 101 93 89 93 89 85 76 64 64 56 44 44 28 52 40 48 48 16 8 28 24 4 20 28 44 68 8 36 52 76 52 28 56 52 80 89 80 64 89 80 60 40 48 56 0 76 125 60 64 56 48 105 85 85 85 68 89 113 64 20 60 44 20 36 48 68 28 20 20 8 20 85 72 85 20 44 48 56 64 80 109 125 117 121 80 113 125 101 113 125 125 97 80 101 64 48 64 64 105 133 121 113 105 60 85 121 129 182 145 125 125 76 182 214 157 101 105 101 97 117 80 64 60 56 40 40 40 36 32 24 12 16 8 0 12 8 16 28 32 28 52 40 48 36 40 8 40 32 36 4 85 113 109 80 12 68 89 93 28 40 76 68 12 0 24 28 16 16 56 72 32 32 56 76 157 8 24 16 8 32 97 105 85 85 97 44 4 36 52 64 20 97 109 40 12 109 28 32 97 64 0 113 32 32 44 121 32 93 109 109 137 101 101 137 133 129 113 109 109 125 72 8 117 85 52 105 105 121 121 153 165 80 80 129 125 125 174 97 80 60 178 218 157 20 16 4 8 0 0 4 8 20 36 40 12 4 0 12 40 12 68 105 101 145 109 113 133 105 97 28 36 36 24 8 56 76 12 4 85 60 101 8 24 105 64 56 56 85 24 24 4 28 32 36 48 56 56 36 52 52 48 72 89 60 20 44 117 72 89 93 113 97 40 0 56 28 52 64 24 117 101 16 52 105 28 85 89 117 48 72 85 72 101 117 60 109 109 105 101 109 137 109 113 121 121 133 149 105 8 40 28 117 85 85 145 105 141 157 125 141 68 89 157 105 117 186 80 64 121 153 145 80 93 109 121 137 149 157 161 157 165 44 72 32 32 44 36 4 85 117 85 129 89 117 125 109 64 44 36 40 20 16 89 52 12 16 32 93 36 48 60 56 12 48 105 28 12 32 40 28 56 93 76 97 93 28 48 85 68 72 72 64 93 44 113 68 85 76 109 93 0 56 56 32 40 64 32 141 40 16 60 85 56 133 32 157 117 48 109 36 137 101 93 52 113 93 101 129 105 97 101 97 121 117 121 8 56 16 68 85 80 80 129 101 121 149 125 161 97 85 121 149 113 145 109 80 121 109 194 141 149 141 137 145 141 133 141 149 93 0 93 20 76 85 8 0 44 68 121 109 97 101 85 68 32 32 48 48 20 40 105 12 0 141 8 56 20 48 20 36 32 48 93 0 32 12 60 20 89 80 85 97 64 36 109 52 101 60 76 72 68 76 68 97 97 129 133 4 40 56 52 32 40 60 32 85 4 121 113 44 125 80 52 101 141 105 68 80 52 170 93 52 105 109 93 89 101 113 101 89 105 141 48 8 68 12 80 24 125 72 121 121 133 149 153 113 145 60 149 170 141 133 80 76 198 178 226 129 137 133 133 141 133 137 137 141 24 0 109 28 32 0 125 170 64 85 97 105 125 76 20 40 89 52 40 44 24 44 36 0 60 64 76 0 16 20 56 12 44 72 64 48 36 36 72 36 16 85 76 93 44 89 101 52 101 89 60 72 76 93 68 121 137 145 117 16 60 40 89 32 44 52 40 36 64 109 101 56 129 68 80 117 97 117 113 97 32 80 93 97 44 121 121 101 121 109 105 113 89 85 4 93 44 36 72 89 117 76 85 133 121 137 133 194 129 129 89 202 129 137 48 89 129 214 222 137 137 129 125 141 133 133 145 80 16 20 105 8 8 24 8 109 194 137 93 76 125 44 72 105 76 60 32 52 28 32 0 44 56 28 101 52 0 76 44 32 68 44 16 85 4 28 80 52 52 68 56 64 40 89 113 40 68 121 68 72 60 85 93 85 117 149 16 44 56 64 101 24 48 48 32 36 117 97 60 105 105 64 113 93 97 105 113 80 101 36 101 76 44 93 113 97 105 121 121 97 89 32 20 141 28 72 60 125 101 97 68 145 145 141 125 133 133 145 121 56 133 133 48 113 133 190 242 129 117 129 137 129 133 133 141 16 12 64 93 40 8 24 72 32 117 182 52 8 113 121 117 80 93 64 32 44 28 8 32 56 93 32 64 32 40 20 16 40 89 8 24 89 20 101 48 93 0 72 85 80 60 80 48 48 93 101 105 64 52 80 76 56 97 93 12 64 36 105 72 32 44 60 36 105 109 97 60 137 76 52 93 125 113 105 101 129 56 85 93 80 48 48 97 64 97 93 93 93 76 4 97 121 24 97 64 121 125 105 68 93 141 125 113 117 125 121 129 101 56 121 16 125 161 125 194 133 101 125 125 133 133 149 76 24 12 105 93 12 0 8 36 64 36 165 161 64 44 80 117 85 93 52 40 48 28 40 20 80 85 4 0 28 105 40 20 60 68 32 28 76 68 20 24 105 32 101 117 48 105 85 60 80 80 89 101 72 72 44 85 72 93 28 32 52 60 93 101 40 44 72 44 125 113 93 56 129 89 40 117 121 89 121 145 109 113 36 56 89 89 44 68 89 80 80 85 117 36 40 109 109 16 72 64 129 113 121 64 125 117 157 153 121 198 137 170 133 121 60 64 137 117 133 121 68 93 117 121 97 76 93 12 44 24 125 97 0 8 8 48 68 60 44 210 117 56 72 113 85 64 36 40 48 28 52 113 76 8 56 8 0 85 40 28 80 32 44 93 149 80 32 40 60 80 76 89 44 72 85 28 72 97 93 93 93 64 40 80 76 72 76 36 52 101 97 85 40 44 56 72 101 105 76 72 137 129 56 113 101 129 117 89 109 101 89 40 36 68 68 76 48 32 109 101 64 8 121 85 89 28 76 68 133 121 113 68 125 141 133 133 133 149 105 117 89 105 101 105 68 80 80 64 20 64 0 16 16 32 80 72 36 60 113 85 0 8 20 52 76 72 52 113 170 105 44 101 80 56 32 40 40 32 56 72 0 64 80 68 36 12 28 28 85 36 64 48 32 52 72 85 44 93 60 72 48 60 60 32 125 117 93 93 105 64 48 56 68 76 89 56 44 117 109 85 72 76 64 72 101 117 85 85 125 105 56 121 105 113 101 101 93 101 80 76 85 60 64 85 80 101 101 121 101 109 117 113 109 101 101 85 97 85 76 76 80 60 60 48 36 20 24 12 12 8 20 16 32 48 40 60 97 40 60 97 93 101 97 93 44 76 113 89 0 8 36 80 76 80 76 36 194 125 76 52 32 12 48 44 56 44 64 8 16 109 76 101 97 24 76 80 20 20 8 93 93 113 64 97 85 48 101 52 68 89 93 72 80 113 141 89 76 56 60 40 64 56 56 64 40 76 85 60 44 44 52 44 85 93 68 93 117 80 101 109 109 97 113 113 121 101 93 97 101 93 89 80 85 64 56 36 36 24 32 16 16 16 16 12 20 48 44 28 12 32 60 89 93 93 109 93 113 141 125 117 141 222 246 137 97 72 97 101 85 101 113 89 60 105 101 89 0 8 56 89 89 85 89 56 129 149 36 32 48 89 52 36 44 68 16 4 80 72 101 97 129 89 24 24 44 24 68 141 101 125 89 85 68 32 72 64 89 72 68 97 89 76 80 121 133 64 56 68 85 85 85 105 97 105 121 64 44 40 52 52 89 76 76 64 56 64 44 44 36 32 24 44 24 12 24 24 16 12 12 20 28 20 24 60 105 80 101 105 113 40 52 24 137 60 89 32 113 174 174 149 117 105 109 117 137 125 97 153 145 202 222 170 101 80 68 113 93 109 113 80 97 97 93 97 0 28 76 80 85 85 97 80 56 178 113 52 80 76 72 64 64 72 32 60 36 68 121 48 44 64 24 48 97 28 80 76 97 121 161 36 72 101 97 89 85 80 89 97 97 93 97 72 72 80 80 76 64 48 52 48 32 28 32 48 44 52 44 44 16 16 8 36 52 4 8 8 16 16 28 28 32 68 68 28 8 12 28 20 20 24 48 48 109 105 113 93 85 56 64 60 101 109 64 16 133 101 129 170 101 137 117 121 157 89 137 133 109 133 149 170 93 101 97 113 101 109 121 85 113 105 85 85 24 20 52 68 76 93 93 85 48 145 89 68 60 56 44 32 40 44 24 97 60 60 125 80 85 101 68 93 105 85 101 113 89 89 68 101 93 64 56 44 40 32 32 24 12 20 8 16 20 20 16 8 16 28 24 16 24 60 32 44 44 36 36 44 28 28 28 36 97 20 52 109 113 141 80 85 101 101 72 28 8 40 16 4 52 0 40 32 48 117 109 109 109 85 24 85 72 129 60 28 105 121 157 109 161 113 125 174 170 149 153 117 206 186 194 101 56 97 105 105 105 109 113 72 133 56 76 52 0 16 24 28 40 40 44 44 60 68 72 80 85 52 40 40 40 48 76 85 80 72 52 60 52 36 32 40 28 24 16 8 8 16 20 28 32 8 40 44 44 40 32 72 64 72 64 80 129 44 12 12 32 36 44 40 40 56 52 52 24 36 36 20 20 40 16 12 101 8 12 24 16 4 16 36 36 36 36 28 32 36 8 12 52 36 16 28 32 105 105 97 76 113 20 64 48 121 56 64 133 129 182 157 186 170 117 137 101 101 117 178 222 198 105 109 97 93 113 105 113 105 113 85 93 68 93 64 76 101 89 76 76 80 76 64 56 60 40 44 24 44 48 40 40 32 16 12 8 56 48 48 60 72 28 36 85 48 72 89 121 133 72 48 56 40 56 56 32 64 85 101 76 89 93 89 113 40 16 28 60 40 64 56 48 20 40 52 68 40 48 44 16 8 12 20 113 48 36 16 101 149 93 125 125 89 85 28 36 40 16 20 36 24 44 20 40 113 129 113 105 85 68 24 44 113 48 101 113 105 129 97 117 137 129 182 109 60 194 145 222 133 157 121 76 56 64 72 56 44 52 68 52 36 28 16 20 16 12 12 16 8 4 8 8 12 8 28 97 68 36 36 32 40 16 89 101 133 121 109 97 76 44 36 93 80 56 85 85 101 64 44 72 32 40 24 28 20 32 60 20 28 36 36 48 48 24 36 36 40 48 48 32 28 28 28 68 44 40 44 36 8 20 24 76 145 4 24 36 32 48 64 80 80 64 52 16 40 24 20 40 40 32 40 36 89 109 105 109 121 121 32 113 68 40 117 109 113 109 133 109 113 137 214 170 149 238 170 125 141 93 97 20 20 24 12 8 16 4 4 4 4 4 16 4 4 8 48 32 56 80 40 8 12 8 109 149 113 16 28 24 16 36 117 85 72 64 52 101 129 56 16 105 85 80 137 113 105 85 52 64 40 28 56 56 105 48 60 76 101 68 97 101 52 28 0 28 44 44 16 52 60 36 72 68 72 44 36 85 89 28 24 48 161 48 28 24 20 48 16 44 44 48 48 32 44 12 36 36 44 28 56 48 105 109 117 109 97 105 105 109 56 16 161 93 113 109 170 153 105 80 101 161 170 137 109 170 149 137 89 60 141 89 24 76 8 20 4 20 20 16 28 32 36 32 24 16 24 24 24 28 36 44 113 109 137 36 40 36 24 89 141 68 89 117 109 80 64 64 16 97 109 64 80 113 105 48 89 60 76 48 60 76 56 72 72 68 64 76 85 85 48 28 12 28 56 28 0 76 125 32 80 64 56 48 40 76 101 85 137 28 72 165 4 8 28 4 12 40 32 44 28 52 36 24 44 28 44 56 24 85 105 109 97 101 85 89 141 64 32 8 113 182 113 105 121 129 117 16 28 105 153 121 186 153 125 105 109 85 117 76 24 89 28 24 20 32 32 64 68 68 28 28 32 76 36 16 40 24 32 68 85 129 121 36 36 40 36 40 85 153 80 121 129 101 72 85 28 72 141 113 72 101 129 56 85 153 64 60 80 52 93 40 64 80 44 44 28 85 40 24 12 56 44 24 24 76 52 52 85 68 60 72 48 72 68 101 105 72 40 117 161 85 85 64 60 40 16 20 32 16 48 16 40 24 40 36 68 109 93 117 72 105 121 145 72 16 133 72 48 145 145 109 117 109 153 48 16 165 165 141 137 141 242 170 76 80 121 64 28 129 76 44 48 52 52 64 85 85 93 93 97 89 89 93 93 89 80 64 64 105 121 32 40 44 36 56 80 105 76 141 145 141 85 117 48 52 165 85 80 125 137 48 97 121 68 36 44 76 125 72 60 48 76 64 56 97 32 20 24 68 52 72 28 28 85 105 85 85 85 93 60 85 97 109 97 68 52 52 137 145 113 129 117 113 109 24 20 40 80 4 32 12 76 12 109 76 89 89 101 68 149 76 28 137 121 101 20 48 141 202 117 68 101 89 68 129 153 165 202 210 246 186 121 80 101 64 20 157 125 52 40 28 32 44 68 68 76 76 72 76 76 76 72 68 68 72 68 89 141 44 52 52 40 76 101 101 129 121 101 141 44 117 117 52 137 113 101 133 32 89 89 40 32 60 105 52 93 105 89 97 101 109 97 68 24 24 28 36 76 60 28 36 80 60 80 109 109 109 89 89 80 72 12 80 105 52 52 133 153 76 76 105 117 12 24 80 68 12 48 80 64 8 76 80 133 117 101 153 76 24 113 174 149 76 117 80 44 105 202 129 52 8 24 117 137 113 36 44 44 52 68 76 121 93 101 157 121 64 97 68 117 85 16 20 12 28 36 36 32 44 48 48 44 44 32 36 137 60 64 60 60 80 68 97 117 101 85 89 80 60 44 89 72 190 52 60 80 52 60 64 36 80 76 93 68 101 93 89 97 113 97 40 16 28 44 72 125 89 105 52 85 141 105 105 117 105 97 105 89 89 80 109 101 121 52 44 121 178 125 133 52 48 52 48 36 85 97 113 60 0 32 24 101 161 125 64 32 72 113 117 76 105 89 85 28 32 68 157 186 105 36 48 16 36 20 28 28 0 16 89 113 64 97 157 97 68 80 48 80 28 28 12 28 52 93 109 101 72 24 0 40 28 129 117 93 85 93 93 76 85 72 56 113 93 56 76 93 101 40 44 44 149 133 76 105 113 113 52 36 85 89 76 89 60 93 105 97 93 76 20 28 32 40 109 85 85 109 72 24 101 97 97 89 97 97 113 89 76 85 101 85 113 141 72 40 76 129 165 80 12 20 56 105 113 97 85 85 24 24 137 137 76 48 12 44 32 12 24 64 28 52 52 97 80 56 36 68 121 170 141 202 165 178 190 133 149 145 89 117 56 105 149 97 68 89 89 28 32 20 68 85 32 24 40 52 80 44 8 28 64 76 56 93 105 101 113 101 101 117 105 76 76 64 113 129 125 72 85 52 76 165 97 117 105 76 117 85 93 97 109 85 97 80 105 105 101 36 16 8 24 52 101 113 105 97 125 72 72 64 64 64 60 68 68 109 89 89 76 72 68 64 52 24 12 48 68 117 145 117 125 89 68 85 89 97 121 113 72 44 12 44 80 105 93 105 117 105 113 125 125 141 145 125 85 93 105 109 121 105 117 121 121 121 129 129 97 113 56 109 170 109 80 76 28 44 24 80 80 109 44 48 48 52 97 32 20 40 48 48 68 101 101 101 93 97 105 153 89 52 64 72 109 93 97 101 80 80 24 89 161 93 113 113 121 137 48 44 72 109 109 109 97 101 56 20 12 0 89 85 76 64 68 56 44 44 56 44 48 48 48 48 48 40 36 28 40 52 52 68 52 72 113 32 12 28 56 101 89 97 113 109 105 109 117 109 109 121 133 129 133 129 129 129 133 133 133 137 133 129 121 129 133 129 125 117 117 121 121 121 105 101 105 93 93 105 52 109 174 101 76 28 40 101 97 85 125 125 44 44 52 68 85 20 44 32 16 72 72 85 85 85 85 85 117 133 80 76 93 80 80 93 85 101 93 89 32 44 93 149 97 64 56 60 32 36 56 44 60 16 93 68 12 8 0 28 32 20 60 44 52 56 85 64 68 72 85 85 93 93 97 105 133 109 137 125 121 129 133 121 129 125 133 125 145 129 129 125 125 137 133 129 137 133 141 133 129 129 137 117 129 129 125 121 125 129 129 129 125 125 129 117 129 129 113 109 133 121 109 109 113 105 109 113 52 129 186 97 48 16 93 186 97 85 52 48 48 28 44 113 36 28 48 48 36 44 64 64 48 56 52 56 44 93 52 36 40 24 20 12 16 16 16 8 16 8 40 76 133 89 76 64 40 24 89 85 113 109 93 52 64 68 72 121 109 117 133 129 129 129 125 129 133 133 129 141 125 129 133 121 121 121 113 113 125 121 125 117 113 113 105 97 113 109 105 113 109 117 129 125 125 125 125 129 133 121 121 129 129 121 125 129 125 129 129 133 133 125 129 129 129 125 133 121 125 121 117 109 117 113 125 93 72 97 113 72 60 72 89 80 52 85 76 48 16 44 109 64 12 72 60 44 20 32 60 60 64 52 56 56 40 36 101 109 64 85 113 121 85 101 113 105 129 105 85 105 105 129 129 125 133 129 125 129 129 125 133 125 125 125 125 121 121 125 117 117 117 117 113 113 113 117 113 117 117 109 117 105 109 101 109 97 125 117 121 113 113 109 105 93 113 113 121 113 117 125 121 133 133 129 129 129 129 137 137 125 129 125 125 121 125 129 129 125 129 129 129 125 129 129 137 133 137 125 129 121 109 109 80 141 16 52 60 8 12 36 68 105 60 101 44 36 16 105 68 8 44 64 52 28 145 109 72 85 89 97 105 113 109 113 129 129 133 129 133 129 129 129 133 133 129 125 125 121 129 125 121 125 117 117 117 113 121 113 113 113 121 117 117 113 117 121 117 113 113 113 117 121 121 121 117 121 109 121 109 113 113 121 105 101 129 121 109 109 117 109 105 105 117 113 113 117 121 117 121 129 133 129 133 129 129 133 141 137 141 125 125 125 129 125 125 125 133 137 141 137 137 137 133 137 129 133 129 105 113 85 40 89 133 149 56 24 52 125 145 93 93 93 117 64 117 109 85 89 129 137 129 133 121 125 129 129 129 129 125 125 125 129 121 121 121 125 117 125 117 113 113 121 117 125 125 125 117 125 133 125 129 121 125 121 121 125 125 121 121 117 121 125 125 117 113 117 121 113 117 113 117 117 117 117 109 117 117 113 109 105 109 93 117 121 113 113 101 101 109 101 117 105 117 113 117 121 117 125 129 129 133 129 133 129 137 125 129 125 125 121 125 121 129 129 133 129 125 121 125 133 121 125 129 117 109 93 89 85 101 109 121 125 125 129 133 129 129 125 129 125 125 125 121 129 125 125 125 121 121 121 125 125 125 121 121 117 121 121 125 125 129 121 125 125 121 125 129 117 121 125 113 121 125 133 129 137 137 125 125 133 121 117 129 117 117 121 121 117 117 117 121 117 117 121 121 117 117 109 113 113 117 121 117 117 117 117 113 105 117 101 125 117 113 105 101 105 97 97 117 93 113 109 113 109 113 121 129 125 121 117 125 129 125 129 129 121 117 117 117 125 129 129 125 129 133 129 125 117 105 101 97 93 85 64 76 85 117 113 109 105 101 97 101 101 113 117 105 109 109 113 113 117 117 125 125 129 125 121 117 121 125 121 125 121 129 125 129 125 125 129 125 117 133 125 125 133 129 125 129 121 137 137 137 133 133 133 117 121 129 113 113 121 117 121 125 121 121 117 121 117 113 117 109 113 117 117 117 117 117 113 113 113 109 121 101 97 109 85 125 105 97 101 105 89 89 85 109 76 101 109 101 101 109 105 109 117 125 137 133 129 133 129 129 133 117 125 133 133 133 137 137 137 129 125 121 117 101 85 85 85 72 68 76 76 101 89 97 93 89 105 97 97 97 117 117 113 117 121 113 117 125 129 121 125 125 129 125 129 125 129 129 129 125 129 129 125 129 125 121 129 125 137 133 133 125 121 141 133 133 133 137 137 133 129 125 121 117 121 125 113 117 117 117 117 121 121 117 117 113 121 117 121 117 117 113 109 121 109 113 109 117 113 97 97 101 97 129 101 105 93 89 93 89 89 129 89 117 109 113 109 109 113 117 129 125 129 125 125 117 105 93 93 89 76 64 68 56 56 56 52 40 32 20 12 16 12 16 16 12 12 12 4 101 97 101 97 101 101 97 97 97 117 109 125 125 109 109 121 121 113 133 129 129 129 129 121 129 129 129 129 121 129 133 129 125 125 125 125 125 129 129 133 133 137 125 137 129 129 137 133 133 117 101 121 121 101 117 113 113 117 121 117 121 117 121 121 113 125 125 129 125 125 129 125 125 117 121 109 117 105 113 117 117 76 137 121 105 113 80 72 56 56 72 24 36 28 40 32 24 20 20 20 16 8 0 0 16 12 20 16 12 12 16 12 16 20 20 20 12 16 20 20 16 20 32 20 24 28 16 24 101 97 93 101 97 97 109 105 93 109 113 113 121 109 97 117 117 113 125 121 129 125 125 125 125 125 125 125 125 125 129 121 133 129 129 125 129 129 129 129 133 129 133 133 137 137 129 137 129 129 121 117 121 121 121 113 117 117 121 121 125 117 113 105 93 93 76 68 64 56 56 48 56 48 32 32 36 32 28 12 8 16 20 24 12 8 12 8 12 12 16 20 24 28 20 24 16 8 12 12 16 8 12 16 24 16 24 16 24 16 24 28 20 20 20 20 16 20 16 16 16 24 16 20 20 16 28 24 